<?xml version="1.0" encoding="UTF-8"?><svg id="renders" xmlns="http://www.w3.org/2000/svg" viewBox="0 0 24 24"><defs><style>.cls-1,.cls-2,.cls-3,.cls-4,.cls-5{fill:none;}.cls-1,.cls-2,.cls-4,.cls-5{stroke-miterlimit:10;}.cls-1,.cls-3,.cls-4{stroke-width:.62px;}.cls-1,.cls-5{stroke:#000;}.cls-2,.cls-4{opacity:.5;stroke:#fff;}.cls-2,.cls-5{stroke-width:.7px;}.cls-3{stroke:red;stroke-linecap:round;stroke-linejoin:round;}</style></defs><g id="new_ie-2"><path class="cls-4" d="M2.58,12C2.58,6.8,6.8,2.58,12,2.58s9.42,4.22,9.42,9.42-4.22,9.42-9.42,9.42S2.58,17.2,2.58,12"/><path class="cls-1" d="M3.27,12C3.27,7.18,7.18,3.27,12,3.27s8.73,3.91,8.73,8.73-3.91,8.73-8.73,8.73S3.27,16.82,3.27,12"/><path class="cls-2" d="M5.37,12c0-3.66,2.97-6.63,6.63-6.63s6.63,2.97,6.63,6.63-2.97,6.63-6.63,6.63-6.63-2.97-6.63-6.63"/><path class="cls-5" d="M5.86,12c0-3.39,2.75-6.14,6.14-6.14s6.14,2.75,6.14,6.14-2.75,6.14-6.14,6.14-6.14-2.75-6.14-6.14"/><line class="cls-3" x1=".97" y1="12" x2="7.38" y2="12"/><line class="cls-3" x1="12" y1=".97" x2="12" y2="7.38"/><line class="cls-3" x1="23.03" y1="12" x2="16.62" y2="12"/><line class="cls-3" x1="12" y1="23.03" x2="12" y2="16.62"/><line class="cls-3" x1="9.71" y1="12" x2="14.29" y2="12"/><line class="cls-3" x1="12" y1="9.71" x2="12" y2="14.29"/></g></svg>