<svg id="hand" viewBox="0 0 24 24" xmlns="http://www.w3.org/2000/svg">
  <defs>
    <style>
      .cls-1{fill:none;stroke:#000;stroke-linejoin:round}
    </style>
  </defs>
  <path fill="#ccc" d="M0 0h24v24H0z"/>
  <path class="cls-1" d="m1.44 17.28 6.46-6.46a.42.42 0 0 1 .6 0s4.1 4.4 4.1 4.4"/>
  <path class="cls-1" d="m22.56 8.03-5.22 1.75-1.62 4.04a.42.42 0 0 1-.23.24l-2.9 1.16-1.15.46-1.72 5.16"/>
  <path class="cls-1" d="m12.23 20.83.96-3.36 3.88-1.56a.29.29 0 0 0 .17-.17l1.66-4.14 3.65-1.38"/>
  <path class="cls-1" d="M22.56 4.35v3.68l-5.22 1.75-1.62 4.04a.42.42 0 0 1-.23.24l-2.9 1.16-1.15.46-1.72 5.16H2.67c-.65 0-1.18-.53-1.18-1.18V4.35c0-.65.53-1.18 1.18-1.18h18.71c.65 0 1.18.53 1.18 1.18Z"/>
  <path class="cls-1" d="m18.91 11.58 3.65-1.38v9.44c0 .65-.53 1.18-1.18 1.18h-9.15l.96-3.36 3.88-1.56a.29.29 0 0 0 .17-.17l1.66-4.14Z"/>
</svg>
