<svg id="traces" viewBox="0 0 86.73 61.46">
  <defs>
    <style>
      .cls-1{fill:none;stroke:#000;stroke-linecap:round;stroke-linejoin:round;stroke-width:2px}
    </style>
  </defs>
  <path class="cls-1" d="M74.78 10.94H11.44"/>
  <path class="cls-1" d="M10.95 28.75c3.51-.61 7.67 1.49 11.16-2.27-3.83-3.51-7.64-1.58-11.41-2.4v18.03c6.84 0 13.46.32 20.03-.1 5.08-.33 3.41-4.28 2.98-7.32"/>
  <path class="cls-1" d="M33.22 29.25c-2.31.16-4.62.29-6.93.51-1.42.13-3.65-.83-3.43 1.96.15 1.94 1.33 3.04 3.43 2.98 2.48-.08 4.99.24 7.67-.76V18.86H10.77a8.26 8.26 0 0 0 .18 5.44"/>
  <path class="cls-1" d="M21.83 20.84c2.79 4.44 7.26 3.4 11.38 3.46"/>
  <path class="cls-1" d="M3.52 1.04C1.17 1.4 1.01 3.03 1.02 5c.05 17.15.08 34.31-.02 51.46-.02 3.01 1.21 3.98 4.01 3.98 25.73-.04 51.46-.05 77.2.02 2.6 0 3.51-.9 3.5-3.5-.07-17.48-.09-34.97.02-52.45.01-2.38-1.04-3.23-3.03-3.44-1.31-.14-2.64-.03-3.96-.03H4.02"/>
</svg>