<svg id="renders" viewBox="0 0 24 24">
  <defs>
    <style>
      .cls-1{fill:#000;stroke-width:0}
    </style>
  </defs>
  <path fill="#b3b3b3" stroke-width="0" d="M0 0h24v24H0z"/>
  <path class="cls-1" d="M8.67 13.05c0-1.03.02-2.05 0-3.08-.11-1.44 1.71-.01 1.52-1.6-.04-.56 0-1.12-.01-1.68 0-.91 1.71-.63 3-.63 1.1 0 .47 1.74.62 2.45-.01.52.19.8.73.74.65-.07.84.22.83.85-.03 1.93 0 3.86-.01 5.79.18 2.85-3.02 1.96-4.87 2.08-2.61.02-1.63-3.2-1.81-4.9Zm.39.14c-.13 4.74-.18 4.46 4.47 4.36.89-.02 1.34-.4 1.36-1.28.05-2 .02-4 .03-6 0-.48-.18-.7-.7-.69-1.49.03-2.98.02-4.46 0-.56 0-.72.24-.71.75.02.95 0 1.9 0 2.85Zm3.02-6.67c-1.69.02-1.54-.23-1.55 1.57l.01.35c.01.1-.01.4.24.65s1.49.09 2.09.14c.76.04.6-.78.62-1.29 0-1.66 0-1.4-1.41-1.43Z"/>
  <path class="cls-1" d="m11.34 8.31-.05-.87.3-.02.04.87-.3.02Z"/>
  <path class="cls-1" d="M12.33 8.24v-.87l.32.04v.86c-.06 0-.25-.04-.32-.03Z"/>
</svg>
