<?xml version="1.0" encoding="UTF-8"?>
<svg id="Layer_2" data-name="Layer 2" xmlns="http://www.w3.org/2000/svg" viewBox="0 0 24 24">
  <defs>
    <style>
      .cls-1 {
        fill: #b3b3b3;
      }
    </style>
  </defs>
  <g id="renders">
    <rect class="cls-1" width="24" height="24"/>
    <g>
      <path d="M21.78,4.19c.64,6.27-1.49,13.36-7.26,17.4-1.25.87-1.98,1.5-3.55.95C3.84,19.36,1.35,10.69,2.31,4.2c8.54-4.01,10.92-3.83,19.46,0ZM12.18,21.95c6.52-3.62,8.93-10.39,8.77-16.92-1.69-1.32-6.58-2.74-8.91-3.07-1.25,0-8.38,2.17-8.9,2.96-.39,6.41,1.78,14.29,9.03,17.03Z"/>
      <path d="M19.06,11.01c-.16,9.23-13.89,9.23-14.05,0,.16-9.23,13.89-9.23,14.05,0ZM6.05,10.98c.13,7.88,11.86,7.88,12,0-.13-7.88-11.86-7.88-12,0Z"/>
      <path d="M10.25,7.76c.68.07,1.76-.37,1.66.55,1.03-.9,2.36-.6,3.57-.27.07.09-.91,1.16-1.09,1.23-.29.12-2.49-.49-2.49.84v4.27h-1.65v-6.61Z"/>
    </g>
  </g>
</svg>