<?xml version="1.0" encoding="UTF-8"?>
<svg id="Layer_2" data-name="Layer 2" xmlns="http://www.w3.org/2000/svg" viewBox="0 0 24 24">
  <defs>
    <style>
      .cls-1 {
        stroke: #f2f2f2;
      }

      .cls-1, .cls-2 {
        fill: none;
        fill-rule: evenodd;
        stroke-linejoin: round;
      }

      .cls-3 {
        fill: #b3b3b3;
      }

      .cls-2 {
        stroke: #000;
      }
    </style>
  </defs>
  <g id="renders">
    <rect class="cls-3" width="24" height="24"/>
    <path class="cls-1" d="M5.42,12c0-4.78,3.03-8.86,7.28-10.41-.02,0-.03,0-.05,0-.21-.01-.43-.02-.64-.02-.36,0-.72.02-1.07.05-.35.04-.7.09-1.04.16-.68.14-1.33.34-1.96.61-.62.26-1.22.59-1.77.96-.69.47-1.33,1.02-1.89,1.64-.22.25-.44.5-.64.77-.4.54-.75,1.11-1.04,1.72-.19.4-.36.83-.5,1.26-.08.25-.16.51-.22.78-.2.8-.3,1.63-.3,2.49s.11,1.77.33,2.61c.43,1.67,1.26,3.17,2.38,4.41.34.37.7.72,1.09,1.04.26.21.53.41.8.6.22.15.44.28.67.42,1.52.87,3.28,1.37,5.16,1.37.22,0,.43,0,.65-.02.02,0,.03,0,.04,0-4.25-1.55-7.28-5.62-7.28-10.41h0Z"/>
    <path class="cls-2" d="M22.42,12c0-2.81-1.11-5.36-2.92-7.23l-5.5,5.97c.56.89.48,2.07-.26,2.88-.89.96-2.39,1.02-3.35.13-.96-.89-1.02-2.39-.13-3.36.73-.79,1.88-.97,2.8-.52l5.51-5.97c-1.62-1.32-3.65-2.16-5.87-2.31,0,0,0,0,0,0-.02,0-.04,0-.06,0-.21-.01-.43-.02-.64-.02-.36,0-.72.02-1.07.05-.35.04-.7.09-1.03.16-.68.14-1.33.34-1.96.61-.62.26-1.22.59-1.77.96-.69.47-1.33,1.02-1.89,1.64-.22.25-.44.5-.64.77-.4.54-.75,1.11-1.04,1.72-.19.4-.36.83-.5,1.26-.08.25-.16.51-.22.78-.2.8-.3,1.63-.3,2.49h0c0,.9.11,1.77.33,2.61.43,1.67,1.26,3.17,2.38,4.41.34.37.7.72,1.08,1.04.26.21.53.41.8.6.22.15.44.28.67.42.14.08.29.16.43.23,1.42.72,3.02,1.13,4.72,1.13.06,0,.12,0,.18,0,.16,0,.31-.01.46-.02.02,0,.03,0,.05,0,0,0,0,0,0,0,5.43-.36,9.73-4.88,9.73-10.41h0Z"/>
  </g>
</svg>